# xmcd
#
# Track frame offsets:
#	150
#	18662
#	39832
#
# Disc length: 785 seconds
#
# Revision: 7
# Processed by: cddbd v1.5PL3 Copyright (c) Steve Scherf et al.
# Submitted via: audiograbber 1.83.01
#
DISCID=19030f03
DTITLE=En Vogue - Don't let go
DYEAR=2002
DGENRE=Folk-Rock
TTITLE0=Don't let go [Radio Edit]
TTITLE1=Don't let go [Fulton Yard Mix]
TTITLE2=Don't let go [2000 Watts remix (featuring Raw Digga)]
EXTD=YEAR: 2002
EXTT0=
EXTT1=
EXTT2=
PLAYORDER=
